<svg xmlns="http://www.w3.org/2000/svg" version="1.1" xmlns:xlink="http://www.w3.org/1999/xlink" xmlns:svgjs="http://svgjs.dev/svgjs" width="1500" height="1500" viewBox="0 0 1500 1500"><rect width="1500" height="1500" fill="#000000"></rect><g transform="matrix(0.6666666666666666,0,0,0.6666666666666666,249.39393939393932,630.1421132034982)"><svg viewBox="0 0 396 95" data-background-color="#ffffff" preserveAspectRatio="xMidYMid meet" height="359" width="1500" xmlns="http://www.w3.org/2000/svg" xmlns:xlink="http://www.w3.org/1999/xlink"><g id="tight-bounds" transform="matrix(1,0,0,1,0.24000000000003752,0.07590214067278112)"><svg viewBox="0 0 395.5199999999999 94.84819571865442" height="94.84819571865442" width="395.5199999999999"><g><svg viewBox="0 0 395.5199999999999 94.84819571865442" height="94.84819571865442" width="395.5199999999999"><g><svg viewBox="0 0 395.5199999999999 94.84819571865442" height="94.84819571865442" width="395.5199999999999"><g><svg viewBox="0 0 395.5199999999999 94.84819571865442" height="94.84819571865442" width="395.5199999999999"><g><svg viewBox="0 0 395.5199999999999 94.84819571865442" height="94.84819571865442" width="395.5199999999999"><g id="textblocktransform"><svg viewBox="0 0 395.5199999999999 94.84819571865442" height="94.84819571865442" width="395.5199999999999" id="textblock"><g><svg viewBox="0 0 395.5199999999999 94.84819571865442" height="94.84819571865442" width="395.5199999999999"><g transform="matrix(1,0,0,1,0,0)"><svg width="395.5199999999999" viewBox="1.85 -46.2 196.18 47.050000000000004" height="94.84819571865442" data-palette-color="#4a596d"><path d="M26.2-35.6L26.2-34.15Q20.65-33.4 16.2-30.33 11.75-27.25 9.22-22.58 6.7-17.9 6.7-12.45L6.7-12.45Q6.7-7.9 8.45-5.25 10.2-2.6 13.05-2.6L13.05-2.6Q15.85-2.6 18.43-6.48 21-10.35 22.58-16.63 24.15-22.9 24.15-29.7L24.15-29.7 28.85-31.55 28.85-5.35Q28.85-3.95 29.45-3.1 30.05-2.25 31.1-2.25L31.1-2.25Q31.9-2.25 32.75-2.78 33.6-3.3 34.05-4.05L34.05-4.05 34.75-3.4Q34.05-1.85 32.6-0.8 31.15 0.25 29.3 0.25L29.3 0.25Q27 0.25 25.58-1.35 24.15-2.95 24.15-5.9L24.15-5.9 24.15-15.45 23.9-15.45Q20.3 0.55 11.7 0.55L11.7 0.55Q7.25 0.55 4.55-2.58 1.85-5.7 1.85-11.15L1.85-11.15Q1.85-17.4 5.15-22.9 8.45-28.4 14.05-31.85 19.65-35.3 26.2-35.6L26.2-35.6ZM54.35-26.7Q56.35-26.05 57.45-24.55 58.55-23.05 58.55-21.1L58.55-21.1Q58.55-20.05 58.27-18.8 58-17.55 57.55-16.65L57.55-16.65 48.85 0.55Q48.75 0.65 48.42 0.75 48.1 0.85 47.85 0.85L47.85 0.85Q47.45 0.85 47.07 0.7 46.7 0.55 46.65 0.4L46.65 0.4 38-18.5Q36.75-20.8 35.4-20.8L35.4-20.8Q34.9-20.8 34.47-20.48 34.05-20.15 33.9-20.05L33.9-20.05 33.45-20.6Q34.05-22.5 35.67-23.75 37.3-25 38.95-25L38.95-25Q39.9-25 40.62-23.75 41.35-22.5 41.8-21.33 42.25-20.15 42.4-19.8L42.4-19.8 49.4-4.25 53.85-13.3Q53.9-13.45 54.27-14.4 54.65-15.35 54.65-16.25L54.65-16.25Q54.65-19.95 50.65-21.8L50.65-21.8 54.35-26.7ZM68.4-41.7L66.7-30.05 65.05-29.45 63-39.85 68.4-41.7ZM68.34-24.8L68.34-4.2Q68.34-3.45 68.72-2.98 69.09-2.5 69.8-2.5L69.8-2.5Q70.34-2.5 71.02-3 71.7-3.5 72.4-4.45L72.4-4.45 73.2-3.7Q72.05-1.55 70.42-0.65 68.8 0.25 67.45 0.25L67.45 0.25Q65.65 0.25 64.67-0.9 63.7-2.05 63.7-4.8L63.7-4.8 63.7-23 68.34-24.8ZM83.79-27.05Q85.49-27.05 86.27-26.45 87.04-25.85 87.04-24.6L87.04-24.6Q87.04-23.25 86.52-22.2 85.99-21.15 85.39-20.4 84.79-19.65 84.59-19.35L84.59-19.35Q85.19-18.35 86.84-17L86.84-17Q88.19-15.85 88.99-14.95 89.79-14.05 90.37-12.53 90.94-11 90.94-8.8L90.94-8.8Q90.94-6.2 89.77-4.05 88.59-1.9 86.52-0.65 84.44 0.6 81.84 0.6L81.84 0.6Q80.24 0.6 78.34-0.08 76.44-0.75 75.54-2L75.54-2 78.89-6.45Q80.09-4.9 81.42-3.8 82.74-2.7 84.29-2.7L84.29-2.7Q86.44-2.7 87.97-4.13 89.49-5.55 89.49-7.55L89.49-7.55Q89.49-9.15 88.17-10.73 86.84-12.3 84.44-14.45L84.44-14.45Q84.14-14.7 83.29-15.48 82.44-16.25 82.04-16.75L82.04-16.75 78.54-11.6 76.94-12.65 80.94-18.2Q80.24-20.15 80.24-22.05L80.24-22.05Q80.24-24.2 81.19-25.63 82.14-27.05 83.79-27.05L83.79-27.05ZM83.79-25.1Q83.14-25.1 82.97-24.75 82.79-24.4 82.79-23.7L82.79-23.7Q82.79-22.8 83.04-22.15 83.29-21.5 83.39-21.25L83.39-21.25Q83.94-21.6 84.42-22.53 84.89-23.45 84.89-24.1L84.89-24.1Q84.89-24.55 84.62-24.83 84.34-25.1 83.79-25.1L83.79-25.1ZM101.89-46.2L101.89-10.65 102.09-10.65Q102.59-13.4 103.87-16.82 105.14-20.25 107.29-22.85 109.44-25.45 112.34-25.45L112.34-25.45Q113.89-25.45 114.62-24.33 115.34-23.2 115.47-21.8 115.59-20.4 115.59-18.1L115.59-18.1 115.59-4.2Q115.59-3.6 115.97-3.05 116.34-2.5 117.14-2.5L117.14-2.5Q118.44-2.5 119.79-4.45L119.79-4.45 120.39-3.7Q119.69-2.05 118.17-0.9 116.64 0.25 115.09 0.25L115.09 0.25Q111.19 0.25 111.19-4.8L111.19-4.8 111.19-18.05Q111.19-18.7 110.92-19.25 110.64-19.8 109.99-19.8L109.99-19.8Q107.44-19.8 105.59-15.83 103.74-11.85 102.74-7.08 101.74-2.3 101.74-0.6L101.74-0.6 97.29 0.7 97.29-44.3 101.89-46.2ZM130.09-46.2L130.09-9.7 130.44-9.7Q131.89-15.4 134.66-20.43 137.44-25.45 141.39-25.45L141.39-25.45Q142.99-25.45 143.94-24.2 144.89-22.95 144.89-21.15L144.89-21.15Q144.89-18.1 142.29-15.3 139.69-12.5 136.34-10.5L136.34-10.5Q136.59-10.15 138.06-7.98 139.54-5.8 141.29-4.1 143.04-2.4 144.29-2.4L144.29-2.4Q146.09-2.4 147.54-4.1L147.54-4.1 148.34-3.25Q147.24-1.55 145.31-0.53 143.39 0.5 141.54 0.5L141.54 0.5Q139.39 0.5 137.66-1.1 135.94-2.7 133.94-5.5L133.94-5.5Q132.34-7.7 131.54-8.35L131.54-8.35 131.09-8Q130.74-6.85 130.49-4.6 130.24-2.35 130.19-0.6L130.19-0.6 125.59 0.7 125.59-44.3 130.09-46.2ZM138.29-20.05Q136.79-20.05 135.29-17.53 133.79-15 132.19-11.2L132.19-11.2Q131.39-9.35 131.29-9.25L131.29-9.25Q134.64-10.65 137.34-13.1 140.04-15.55 140.04-18.05L140.04-18.05Q140.04-18.7 139.56-19.38 139.09-20.05 138.29-20.05L138.29-20.05ZM164.39-25Q166.84-25 169.01-23.95 171.19-22.9 172.19-20.75L172.19-20.75 168.59-18.8Q167.79-19.95 166.39-20.88 164.99-21.8 163.39-21.8L163.39-21.8Q160.84-21.8 158.94-20.48 157.04-19.15 156.04-16.9 155.04-14.65 155.04-11.9L155.04-11.9Q155.04-7.95 156.39-5.48 157.74-3 160.64-3L160.64-3Q164.74-3 166.29-6.3 167.84-9.6 167.84-13.5L167.84-13.5 167.84-15.75 172.24-17.6 172.24-4.45Q172.24-3.8 172.59-3.2 172.94-2.6 173.64-2.6L173.64-2.6Q175.09-2.6 176.29-4.6L176.29-4.6 177.04-3.8Q176.44-2.1 174.94-0.93 173.44 0.25 171.94 0.25L171.94 0.25Q169.79 0.25 168.76-1.35 167.74-2.95 167.74-5.6L167.74-5.6 167.64-5.6Q166.39-2.95 164.26-1.18 162.14 0.6 159.79 0.6L159.79 0.6Q155.54 0.6 153.36-2.33 151.19-5.25 151.19-10.15L151.19-10.15Q151.19-14.05 152.94-17.48 154.69-20.9 157.71-22.95 160.74-25 164.39-25L164.39-25ZM191.28-18.9Q189.03-16.55 187.41-12.78 185.78-9 185.78-5.9L185.78-5.9Q185.78-3.2 186.96-1.38 188.13 0.45 190.73 0.45L190.73 0.45Q192.83 0.45 194.76-0.65 196.68-1.75 198.03-3.5L198.03-3.5 197.48-4.25Q195.93-3.2 194.43-3.2L194.43-3.2Q192.08-3.2 190.88-4.85 189.68-6.5 189.68-8.85L189.68-8.85Q189.68-12.65 191.63-16.05 193.58-19.45 196.58-22.65L196.58-22.65 195.78-23.35Q192.28-21.15 189.38-21.15L189.38-21.15Q187.68-21.15 186.28-22.68 184.88-24.2 184.13-26.05L184.13-26.05 180.08-21.5Q180.43-20.5 181.98-19.2L181.98-19.2 178.63-12.2 180.48-11.35 183.73-18.5Q184.58-18.15 185.13-18.05 185.68-17.95 186.63-17.95L186.63-17.95Q189.08-17.95 191.13-19.05L191.13-19.05 191.28-18.9Z" opacity="1" transform="matrix(1,0,0,1,0,0)" fill="#ffffff" class="wordmark-text-0" data-fill-palette-color="primary" id="text-0"></path></svg></g></svg></g></svg></g></svg></g><g></g></svg></g></svg></g></svg></g><defs></defs></svg><rect width="395.5199999999999" height="94.84819571865442" fill="none" stroke="none" visibility="hidden"></rect></g></svg></g></svg>