<?xml version="1.0" encoding="UTF-8"?>
<svg xmlns="http://www.w3.org/2000/svg" xmlns:xlink="http://www.w3.org/1999/xlink" width="1500px" height="1000px" viewBox="0 0 1500 1000" version="1.1">
<defs>
<clipPath id="clip1">
  <path d="M 250.121094 419.179688 L 1247.558594 419.179688 L 1247.558594 578.640625 L 250.121094 578.640625 Z M 250.121094 419.179688 "/>
</clipPath>
<clipPath id="clip2">
  <path d="M 250.121094 165 L 1247.558594 165 L 1247.558594 833 L 250.121094 833 Z M 250.121094 165 "/>
</clipPath>
</defs>
<g id="surface1">
<rect x="0" y="0" width="1500" height="1000" style="fill:rgb(0%,0%,0%);fill-opacity:1;stroke:none;"/>
<g clip-path="url(#clip1)" clip-rule="nonzero">
<path style=" stroke:none;fill-rule:nonzero;fill:rgb(100%,100%,100%);fill-opacity:1;" d="M 373.960938 455.105469 L 373.960938 460.019531 C 355.152344 461.714844 338.207031 466.03125 323.125 472.96875 C 308.042969 479.925781 296.214844 488.683594 287.640625 499.234375 C 279.097656 509.808594 274.828125 521.253906 274.828125 533.566406 C 274.828125 543.847656 277.792969 551.980469 283.722656 557.96875 C 289.65625 563.957031 297.449219 566.949219 307.109375 566.949219 C 316.601562 566.949219 325.714844 562.566406 334.460938 553.800781 C 343.171875 545.054688 350.203125 533.589844 355.558594 519.398438 C 360.878906 505.234375 363.539062 490.46875 363.539062 475.101562 L 387.433594 468.832031 L 387.433594 557.628906 C 387.433594 560.792969 388.449219 563.335938 390.484375 565.253906 C 392.515625 567.175781 395.3125 568.136719 398.871094 568.136719 C 401.582031 568.136719 404.378906 567.539062 407.261719 566.339844 C 410.140625 565.164062 412.34375 563.730469 413.871094 562.035156 L 417.429688 564.238281 C 415.054688 567.742188 411.414062 570.679688 406.496094 573.050781 C 401.582031 575.421875 395.992188 576.609375 389.722656 576.609375 C 381.925781 576.609375 375.621094 574.800781 370.808594 571.1875 C 365.964844 567.570312 363.539062 562.429688 363.539062 555.765625 L 363.539062 523.398438 L 362.269531 523.398438 C 350.066406 559.550781 329.394531 577.625 300.246094 577.625 C 285.164062 577.625 273.046875 574.089844 263.898438 567.015625 C 254.746094 559.96875 250.171875 550.285156 250.171875 537.972656 C 250.171875 523.851562 255.765625 510.578125 266.949219 498.148438 C 278.132812 485.722656 293.214844 475.609375 312.195312 467.816406 C 331.171875 460.019531 351.761719 455.785156 373.960938 455.105469 Z M 517.070312 485.269531 C 523.847656 486.738281 529.101562 489.167969 532.828125 492.558594 C 536.558594 495.945312 538.421875 499.84375 538.421875 504.25 C 538.421875 506.621094 537.949219 509.21875 537 512.046875 C 536.082031 514.871094 534.863281 517.296875 533.339844 519.332031 L 489.109375 577.625 C 488.769531 577.851562 488.042969 578.078125 486.921875 578.304688 C 485.839844 578.53125 484.871094 578.640625 484.027344 578.640625 C 482.667969 578.640625 481.347656 578.472656 480.058594 578.132812 C 478.804688 577.796875 478.09375 577.457031 477.925781 577.117188 L 433.949219 513.0625 C 429.714844 507.863281 425.308594 505.265625 420.730469 505.265625 C 419.039062 505.265625 417.460938 505.628906 416.003906 506.351562 C 414.582031 507.097656 413.613281 507.582031 413.105469 507.808594 L 410.820312 505.945312 C 412.851562 501.652344 416.613281 498.09375 422.105469 495.269531 C 427.628906 492.445312 433.1875 491.03125 438.78125 491.03125 C 442 491.03125 444.828125 492.445312 447.269531 495.269531 C 449.742188 498.09375 451.742188 500.828125 453.269531 503.46875 C 454.792969 506.136719 455.808594 507.863281 456.320312 508.65625 L 491.90625 561.359375 L 514.527344 530.683594 C 514.699219 530.347656 515.410156 529.105469 516.664062 526.957031 C 517.953125 524.8125 518.59375 522.722656 518.59375 520.6875 C 518.59375 512.328125 511.816406 506.058594 498.261719 501.878906 Z M 588.496094 434.433594 L 579.855469 473.917969 L 571.464844 475.949219 L 561.042969 440.703125 Z M 588.191406 491.710938 L 588.191406 561.527344 C 588.191406 563.222656 588.835938 564.601562 590.125 565.660156 C 591.378906 566.746094 593.207031 567.289062 595.613281 567.289062 C 597.445312 567.289062 599.511719 566.722656 601.816406 565.59375 C 604.121094 564.464844 606.460938 562.828125 608.832031 560.679688 L 612.898438 563.222656 C 609 568.078125 604.289062 571.523438 598.765625 573.558594 C 593.277344 575.59375 588.242188 576.609375 583.667969 576.609375 C 577.566406 576.609375 572.855469 575.308594 569.535156 572.710938 C 566.246094 570.113281 564.601562 565.707031 564.601562 559.492188 L 564.601562 497.808594 Z M 666.738281 484.085938 C 672.5 484.085938 676.699219 484.761719 679.34375 486.117188 C 681.953125 487.472656 683.257812 489.5625 683.257812 492.386719 C 683.257812 495.4375 682.378906 498.148438 680.613281 500.523438 C 678.820312 502.894531 676.902344 504.925781 674.871094 506.621094 C 672.835938 508.316406 671.480469 509.503906 670.804688 510.179688 C 672.835938 512.441406 676.648438 515.09375 682.242188 518.144531 C 686.816406 520.742188 690.460938 523.058594 693.171875 525.09375 C 695.882812 527.125 698.222656 529.859375 700.1875 533.296875 C 702.121094 536.753906 703.085938 540.964844 703.085938 545.9375 C 703.085938 551.8125 701.101562 557.175781 697.136719 562.035156 C 693.136719 566.894531 687.628906 570.734375 680.613281 573.558594 C 673.566406 576.382812 665.636719 577.796875 656.824219 577.796875 C 651.402344 577.796875 645.46875 577.027344 639.03125 575.492188 C 632.589844 573.976562 627.84375 571.808594 624.796875 568.984375 L 641.824219 553.902344 C 645.894531 557.402344 650.179688 560.398438 654.6875 562.882812 C 659.160156 565.367188 664.023438 566.609375 669.277344 566.609375 C 676.566406 566.609375 682.800781 564.996094 687.988281 561.765625 C 693.136719 558.554688 695.714844 554.691406 695.714844 550.171875 C 695.714844 546.558594 693.476562 542.964844 689.003906 539.394531 C 684.496094 535.847656 678.175781 531.644531 670.039062 526.789062 C 669.023438 526.222656 667.074219 525.058594 664.195312 523.296875 C 661.3125 521.558594 659.195312 520.121094 657.839844 518.992188 L 640.046875 536.445312 L 631.914062 532.886719 L 652.246094 514.078125 C 649.875 509.671875 648.6875 505.324219 648.6875 501.03125 C 648.6875 496.171875 650.300781 492.128906 653.519531 488.898438 C 656.738281 485.6875 661.144531 484.085938 666.738281 484.085938 Z M 666.738281 490.691406 C 664.535156 490.691406 663.144531 491.089844 662.566406 491.878906 C 661.957031 492.671875 661.652344 493.855469 661.652344 495.4375 C 661.652344 497.472656 662.078125 499.222656 662.921875 500.691406 C 663.769531 502.160156 664.363281 503.175781 664.703125 503.742188 C 666.566406 502.949219 668.3125 501.503906 669.9375 499.402344 C 671.53125 497.324219 672.328125 495.550781 672.328125 494.082031 C 672.328125 493.066406 671.871094 492.242188 670.957031 491.609375 C 670.007812 491 668.601562 490.691406 666.738281 490.691406 Z M 758.753906 419.179688 L 758.753906 539.667969 L 759.769531 539.667969 C 761.464844 533.453125 764.480469 526.484375 768.820312 518.753906 C 773.125 511.003906 778.917969 504.191406 786.207031 498.320312 C 793.492188 492.445312 802.050781 489.507812 811.878906 489.507812 C 817.132812 489.507812 820.996094 490.773438 823.46875 493.304688 C 825.910156 495.855469 827.351562 498.714844 827.789062 501.878906 C 828.199219 505.039062 828.402344 509.21875 828.402344 514.417969 L 828.402344 561.527344 C 828.402344 562.882812 829.042969 564.183594 830.332031 565.425781 C 831.585938 566.667969 833.570312 567.289062 836.28125 567.289062 C 840.6875 567.289062 845.175781 565.085938 849.753906 560.679688 L 852.804688 563.222656 C 850.429688 566.949219 846.667969 570.113281 841.515625 572.710938 C 836.332031 575.308594 831.113281 576.609375 825.859375 576.609375 C 812.640625 576.609375 806.03125 570.902344 806.03125 559.492188 L 806.03125 514.585938 C 806.03125 513.117188 805.574219 511.761719 804.660156 510.519531 C 803.710938 509.277344 802.132812 508.65625 799.929688 508.65625 C 791.289062 508.65625 783.832031 513.140625 777.5625 522.109375 C 771.292969 531.101562 766.464844 540.988281 763.074219 551.765625 C 759.683594 562.566406 757.992188 569.886719 757.992188 573.726562 L 735.367188 578.132812 L 735.367188 425.621094 Z M 902.117188 419.179688 L 902.117188 542.886719 L 903.894531 542.886719 C 908.808594 530.007812 915.960938 517.886719 925.347656 506.519531 C 934.769531 495.179688 946.175781 489.507812 959.5625 489.507812 C 964.984375 489.507812 969.304688 490.917969 972.527344 493.742188 C 975.746094 496.566406 977.355469 500.011719 977.355469 504.082031 C 977.355469 510.972656 972.949219 517.582031 964.136719 523.90625 C 955.324219 530.234375 945.242188 535.65625 933.890625 540.175781 C 934.738281 540.964844 937.652344 543.8125 942.632812 548.714844 C 947.648438 553.640625 953.121094 558.023438 959.054688 561.867188 C 964.984375 565.707031 970.070312 567.628906 974.304688 567.628906 C 980.40625 567.628906 985.914062 565.707031 990.828125 561.867188 L 994.894531 564.746094 C 991.167969 568.585938 986.03125 571.660156 979.492188 573.964844 C 972.984375 576.292969 966.59375 577.457031 960.324219 577.457031 C 953.039062 577.457031 946.464844 575.648438 940.601562 572.035156 C 934.769531 568.417969 928.464844 563.449219 921.6875 557.121094 C 916.265625 552.148438 912.199219 548.929688 909.488281 547.460938 L 907.199219 548.648438 C 906.011719 551.246094 904.996094 555.085938 904.148438 560.171875 C 903.300781 565.253906 902.792969 569.773438 902.625 573.726562 L 879.238281 578.132812 L 879.238281 425.621094 Z M 943.800781 507.808594 C 938.71875 507.808594 933.636719 510.65625 928.550781 516.347656 C 923.46875 522.066406 918.214844 529.21875 912.792969 537.804688 C 910.082031 541.984375 908.554688 544.1875 908.214844 544.410156 C 919.570312 541.25 929.820312 536.898438 938.972656 531.363281 C 948.125 525.828125 952.699219 520.234375 952.699219 514.585938 C 952.699219 513.117188 951.886719 511.617188 950.257812 510.078125 C 948.664062 508.566406 946.515625 507.808594 943.800781 507.808594 Z M 1076.488281 491.03125 C 1084.792969 491.03125 1092.621094 492.21875 1099.976562 494.589844 C 1107.363281 496.964844 1112.753906 500.578125 1116.144531 505.4375 L 1097.839844 512.046875 C 1095.128906 509.445312 1091.402344 507.097656 1086.65625 504.996094 C 1081.910156 502.917969 1076.828125 501.878906 1071.40625 501.878906 C 1062.761719 501.878906 1055.222656 503.367188 1048.78125 506.351562 C 1042.34375 509.355469 1037.429688 513.402344 1034.039062 518.484375 C 1030.652344 523.566406 1028.957031 529.21875 1028.957031 535.429688 C 1028.957031 544.355469 1031.242188 551.609375 1035.820312 557.1875 C 1040.394531 562.792969 1047.597656 565.59375 1057.425781 565.59375 C 1071.320312 565.59375 1080.894531 561.867188 1086.148438 554.410156 C 1091.402344 546.953125 1094.027344 538.820312 1094.027344 530.007812 L 1094.027344 522.382812 L 1116.398438 516.113281 L 1116.398438 560.679688 C 1116.398438 562.148438 1116.988281 563.5625 1118.175781 564.917969 C 1119.363281 566.273438 1121.140625 566.949219 1123.515625 566.949219 C 1128.429688 566.949219 1132.917969 564.691406 1136.984375 560.171875 L 1140.800781 562.882812 C 1138.765625 566.722656 1135.207031 569.964844 1130.125 572.609375 C 1125.039062 575.277344 1119.957031 576.609375 1114.871094 576.609375 C 1107.585938 576.609375 1102.195312 574.800781 1098.707031 571.1875 C 1095.25 567.570312 1093.519531 562.769531 1093.519531 556.78125 L 1093.011719 556.78125 C 1088.773438 562.769531 1083.046875 567.761719 1075.828125 571.761719 C 1068.644531 575.785156 1061.070312 577.796875 1053.105469 577.796875 C 1038.699219 577.796875 1027.804688 574.484375 1020.414062 567.863281 C 1013.0625 561.265625 1009.382812 552.433594 1009.382812 541.363281 C 1009.382812 532.550781 1012.347656 524.269531 1018.28125 516.519531 C 1024.210938 508.792969 1032.292969 502.613281 1042.53125 497.980469 C 1052.796875 493.347656 1064.117188 491.03125 1076.488281 491.03125 Z M 1213.191406 511.707031 C 1205.566406 517.015625 1199.007812 523.929688 1193.519531 532.449219 C 1187.992188 540.988281 1185.230469 548.761719 1185.230469 555.765625 C 1185.230469 561.867188 1187.230469 566.972656 1191.230469 571.085938 C 1195.195312 575.21875 1201.585938 577.285156 1210.394531 577.285156 C 1217.511719 577.285156 1224.34375 576.042969 1230.882812 573.558594 C 1237.390625 571.074219 1242.933594 567.855469 1247.507812 563.898438 L 1244.710938 561.359375 C 1239.457031 563.730469 1234.289062 564.917969 1229.207031 564.917969 C 1221.242188 564.917969 1215.226562 563.050781 1211.160156 559.324219 C 1207.089844 555.597656 1205.058594 551.078125 1205.058594 545.765625 C 1205.058594 537.179688 1208.363281 529.046875 1214.972656 521.363281 C 1221.582031 513.683594 1229.96875 506.226562 1240.136719 498.996094 L 1236.070312 496.625 C 1224.207031 501.59375 1213.363281 504.082031 1203.53125 504.082031 C 1197.769531 504.082031 1192.519531 502.351562 1187.773438 498.894531 C 1183.027344 495.460938 1179.386719 491.652344 1176.84375 487.472656 L 1156.253906 502.894531 C 1157.441406 505.152344 1160.660156 507.753906 1165.914062 510.6875 L 1148.882812 534.414062 L 1158.289062 537.292969 L 1174.808594 513.0625 C 1177.691406 513.851562 1180.0625 514.359375 1181.925781 514.585938 C 1183.789062 514.8125 1186.332031 514.925781 1189.550781 514.925781 C 1197.855469 514.925781 1205.480469 513.683594 1212.429688 511.199219 Z M 1213.191406 511.707031 "/>
</g>
<g clip-path="url(#clip2)" clip-rule="nonzero">
<path style=" stroke:none;fill-rule:nonzero;fill:rgb(100%,100%,100%);fill-opacity:1;" d="M 250.121094 402.859375 L 250.121094 165.386719 L 1247.558594 165.386719 L 1247.558594 402.859375 L 1225.988281 402.859375 L 1225.988281 179.765625 L 271.691406 179.765625 L 271.691406 402.859375 L 250.121094 402.859375 M 250.121094 594.964844 L 250.121094 832.4375 L 1247.558594 832.4375 L 1247.558594 594.964844 L 1225.988281 594.964844 L 1225.988281 818.054688 L 271.691406 818.054688 L 271.691406 594.964844 L 250.121094 594.964844 "/>
</g>
</g>
</svg>
